<!-- Made all these icons in Figma and exported as svg -->

<!-- Heart -->
<svg width="24" height="23" viewBox="0 0 24 23" fill="none" xmlns="http://www.w3.org/2000/svg">
<path d="M6 6C6 8.66667 12 14 12 14C12 14 18 8.66667 18 6" stroke="#242525" stroke-width="12" stroke-linecap="round"/>
</svg>


<!-- Fire -->
<svg width="17" height="22" viewBox="0 0 17 22" fill="none" xmlns="http://www.w3.org/2000/svg">
<path d="M12.8536 8.91867C14.064 10.5348 15 12.3723 15 14.1026C15 15.4394 14.4518 17.0764 13.3779 18.365C12.3306 19.6218 10.8289 20.5 8.88163 20.5C6.71446 20.5 4.85593 19.8563 3.56665 18.7724C2.30436 17.7112 1.5 16.1599 1.5 14.1026C1.5 12.1066 1.84315 9.77094 4.11624 7.93653C4.8992 7.30468 5.40613 6.55706 5.72392 5.78436C5.98637 6.7925 6.0695 7.74097 6.09582 8.5951C6.10897 9.02215 6.1077 9.41434 6.10644 9.80069C6.10608 9.91394 6.10571 10.0267 6.10571 10.1397C6.10571 10.6054 6.11114 11.1163 6.17473 11.573C6.23551 12.0095 6.37661 12.6314 6.82813 13.1454C7.34451 13.7333 8.03804 13.9348 8.68571 13.9348C10.002 13.9348 10.9691 13.17 11.5827 12.3254C12.1909 11.4884 12.5709 10.433 12.7719 9.4015C12.8029 9.24227 12.8302 9.08112 12.8536 8.91867Z" stroke="#242525" stroke-width="3"/>
</svg>


<!-- Mail -->
<svg width="24" height="15" viewBox="0 0 24 15" fill="none" xmlns="http://www.w3.org/2000/svg">
<path d="M2.36145 2C1.87952 2 1.87952 12.1538 2.36145 12.6374C2.84337 13.1209 21.1566 13.1209 21.6386 12.6374C22.1205 12.1538 22.1205 2 21.6386 2M2.36145 2H21.6386M2.36145 2C2.36145 2 9.10844 7.8022 12 7.8022C14.8916 7.8022 21.6386 2 21.6386 2" stroke="#242525" stroke-width="3"/>
</svg>

<!-- Home -->
<svg width="24" height="23" viewBox="0 0 24 23" fill="none" xmlns="http://www.w3.org/2000/svg">
<path d="M19.7613 9.10791L19.7613 20.5899C19.7613 21.1367 18.0982 21.1367 17.5438 20.5899C16.9894 20.0432 18.0982 15.1223 16.9894 14.0288C15.8807 12.9353 15.3263 12.3885 13.1088 12.3885C10.8912 12.3885 10.3369 12.9353 9.2281 14.0288C8.11934 15.1223 9.22811 20.0432 8.67372 20.5899C8.11933 21.1367 4.79302 21.1367 4.23866 20.5899C3.68429 20.0432 4.23866 9.10791 4.23866 9.10791H2.02114C1.46676 9.10791 12 2 12 2C12 2 22.5332 9.10791 21.9789 9.10791H19.7613Z" fill="#242525"/>
<path d="M19.7613 9.10791C19.7613 9.10791 19.7613 20.0432 19.7613 20.5899C19.7613 21.1367 18.0982 21.1367 17.5438 20.5899C16.9894 20.0432 18.0982 15.1223 16.9894 14.0288C15.8807 12.9353 15.3263 12.3885 13.1088 12.3885C10.8912 12.3885 10.3369 12.9353 9.2281 14.0288C8.11934 15.1223 9.22811 20.0432 8.67372 20.5899C8.11933 21.1367 4.79302 21.1367 4.23866 20.5899C3.68429 20.0432 4.23866 9.10791 4.23866 9.10791M19.7613 9.10791H4.23866M19.7613 9.10791C19.7613 9.10791 21.4245 9.10791 21.9789 9.10791C22.5332 9.10791 12 2 12 2C12 2 1.46676 9.10791 2.02114 9.10791C2.57552 9.10791 4.23866 9.10791 4.23866 9.10791" stroke="#242525" stroke-width="3"/>
</svg>

<!-- Person -->
<svg width="20" height="22" viewBox="0 0 20 22" fill="none" xmlns="http://www.w3.org/2000/svg">
<path d="M20 18.337C20 22.3987 15.5228 21.9884 10 21.9884C4.47715 21.9884 0 22.3987 0 18.337C0 14.2752 5.40888 11 10 11C14.5911 11 20 14.2752 20 18.337Z" fill="#242525"/>
<circle cx="10" cy="5" r="5" fill="#242525"/>
</svg>

<!-- Gear -->
<svg width="24" height="24" viewBox="0 0 24 24" fill="none" xmlns="http://www.w3.org/2000/svg">
<path d="M15.5 12C15.5 14.1722 14.1722 15.5 12 15.5C9.8278 15.5 8.5 14.1722 8.5 12C8.5 9.8278 9.8278 8.5 12 8.5C14.1722 8.5 15.5 9.8278 15.5 12Z" stroke="#242525" stroke-width="3"/>
<path d="M10.1488 3.4797C10.5944 1.50677 13.4056 1.50677 13.8512 3.4797C14.14 4.75835 15.6074 5.36614 16.7158 4.66623C18.426 3.58628 20.4137 5.57405 19.3338 7.28424C18.6339 8.39262 19.2416 9.85995 20.5203 10.1488C22.4932 10.5944 22.4932 13.4056 20.5203 13.8512C19.2416 14.14 18.6339 15.6074 19.3338 16.7158C20.4137 18.426 18.426 20.4137 16.7158 19.3338C15.6074 18.6339 14.14 19.2416 13.8512 20.5203C13.4056 22.4932 10.5944 22.4932 10.1488 20.5203C9.85995 19.2416 8.39262 18.6339 7.28424 19.3338C5.57405 20.4137 3.58628 18.426 4.66623 16.7158C5.36614 15.6074 4.75835 14.14 3.4797 13.8512C1.50677 13.4056 1.50677 10.5944 3.4797 10.1488C4.75835 9.85995 5.36614 8.39262 4.66623 7.28424C3.58628 5.57405 5.57405 3.58628 7.28424 4.66623C8.39262 5.36614 9.85995 4.75835 10.1488 3.4797Z" stroke="#242525" stroke-width="3"/>
</svg>

<!-- Post -->
<svg width="22" height="22" viewBox="0 0 22 22" fill="none" xmlns="http://www.w3.org/2000/svg">
<circle cx="11" cy="11" r="11" fill="#FFDC00"/>
<circle cx="11" cy="11" r="8" fill="#242525"/>
<path d="M11 6C11 7.95262 11 11 11 11M11 16V11M11 11H16M11 11H6" stroke="#FFDC00" stroke-width="2" stroke-linecap="round"/>
</svg>

<!-- Exit -->
<svg width="22" height="22" viewBox="0 0 22 22" fill="none" xmlns="http://www.w3.org/2000/svg">
<path d="M10 2H2V20H10" stroke="#242525" stroke-width="4" stroke-linecap="round"/>
<path d="M9 11H19M19 11L14.5556 6M19 11L14.5556 16" stroke="#242525" stroke-width="4" stroke-linecap="round"/>
</svg>
